<mxfile host="app.diagrams.net" modified="2023-11-01T09:35:24.546Z" agent="Mozilla/5.0 (X11; Linux x86_64; rv:109.0) Gecko/20100101 Firefox/118.0" etag="92QYG9RsqmjXcOcDvaCb" version="21.2.1" type="device">
  <diagram name="Page-1" id="c4acf3e9-155e-7222-9cf6-157b1a14988f">
    <mxGraphModel dx="1850" dy="1618" grid="1" gridSize="10" guides="1" tooltips="1" connect="1" arrows="1" fold="1" page="1" pageScale="1" pageWidth="850" pageHeight="1100" background="none" math="0" shadow="0">
      <root>
        <mxCell id="0" />
        <mxCell id="1" parent="0" />
        <mxCell id="H6D08NlV-c1bFrTaUxoZ-1" value="Customer" style="swimlane;fontStyle=1;align=center;verticalAlign=top;childLayout=stackLayout;horizontal=1;startSize=26;horizontalStack=0;resizeParent=1;resizeParentMax=0;resizeLast=0;collapsible=1;marginBottom=0;whiteSpace=wrap;html=1;" vertex="1" parent="1">
          <mxGeometry x="-770" y="-300" width="830" height="270" as="geometry" />
        </mxCell>
        <mxCell id="H6D08NlV-c1bFrTaUxoZ-2" value="&lt;div&gt;- id : Integer&lt;/div&gt;&lt;div&gt;- name : String&lt;/div&gt;&lt;div&gt;- address: String&lt;/div&gt;&lt;div&gt;- email: String&lt;/div&gt;&lt;div&gt;- phone: String&lt;/div&gt;&lt;div&gt;- accounts: List&amp;lt;BankAccount&amp;gt;&lt;br&gt;&lt;/div&gt;" style="text;strokeColor=none;fillColor=none;align=left;verticalAlign=top;spacingLeft=4;spacingRight=4;overflow=hidden;rotatable=0;points=[[0,0.5],[1,0.5]];portConstraint=eastwest;whiteSpace=wrap;html=1;" vertex="1" parent="H6D08NlV-c1bFrTaUxoZ-1">
          <mxGeometry y="26" width="830" height="104" as="geometry" />
        </mxCell>
        <mxCell id="H6D08NlV-c1bFrTaUxoZ-3" value="" style="line;strokeWidth=1;fillColor=none;align=left;verticalAlign=middle;spacingTop=-1;spacingLeft=3;spacingRight=3;rotatable=0;labelPosition=right;points=[];portConstraint=eastwest;strokeColor=inherit;" vertex="1" parent="H6D08NlV-c1bFrTaUxoZ-1">
          <mxGeometry y="130" width="830" height="8" as="geometry" />
        </mxCell>
        <mxCell id="H6D08NlV-c1bFrTaUxoZ-4" value="&lt;div&gt;+ Customer(name: String, address: String,  email: String, phone: String )&lt;/div&gt;&lt;div&gt;+ openAccount(accountType: AccountType): void&lt;/div&gt;&lt;div&gt;- getAccount(accountNumber: Integer): BankAccount&lt;/div&gt;&lt;div&gt;+ depositCurrency(accountNumber: Integer, amount: Double): void&lt;br&gt;&lt;/div&gt;&lt;div&gt;+ withdrawCurrency(accountNumber: Integer, amount: Double): void&lt;/div&gt;&lt;div&gt;+ transferInternalCurrency(sourceAccountNumber: Integer,  destinationAccountNumber: Integer, amount: Double): void&lt;/div&gt;&lt;div&gt;+ transferExternalCurrency(sourceAccountNumber: Integer, destinationCustomer: Customer, destinationAccountNumber: Integer, amount: Double): void&lt;br&gt;&lt;/div&gt;&lt;div&gt;+ getBalance(accountNumber: Integer): Double&lt;br&gt;&lt;/div&gt;&lt;div&gt;&lt;br&gt;&lt;/div&gt;" style="text;strokeColor=none;fillColor=none;align=left;verticalAlign=top;spacingLeft=4;spacingRight=4;overflow=hidden;rotatable=0;points=[[0,0.5],[1,0.5]];portConstraint=eastwest;whiteSpace=wrap;html=1;" vertex="1" parent="H6D08NlV-c1bFrTaUxoZ-1">
          <mxGeometry y="138" width="830" height="132" as="geometry" />
        </mxCell>
        <mxCell id="H6D08NlV-c1bFrTaUxoZ-5" value="BankAccount" style="swimlane;fontStyle=1;align=center;verticalAlign=top;childLayout=stackLayout;horizontal=1;startSize=26;horizontalStack=0;resizeParent=1;resizeParentMax=0;resizeLast=0;collapsible=1;marginBottom=0;whiteSpace=wrap;html=1;" vertex="1" parent="1">
          <mxGeometry x="-500" y="80" width="290" height="230" as="geometry" />
        </mxCell>
        <mxCell id="H6D08NlV-c1bFrTaUxoZ-6" value="&lt;div&gt;- accountNumber: Integer&lt;/div&gt;&lt;div&gt;- accountType: AccountType&lt;/div&gt;&lt;div&gt;- balance: Double&lt;/div&gt;&lt;div&gt;- transactions: List&amp;lt;Transaction&amp;gt;&lt;br&gt;&lt;/div&gt;" style="text;strokeColor=none;fillColor=none;align=left;verticalAlign=top;spacingLeft=4;spacingRight=4;overflow=hidden;rotatable=0;points=[[0,0.5],[1,0.5]];portConstraint=eastwest;whiteSpace=wrap;html=1;" vertex="1" parent="H6D08NlV-c1bFrTaUxoZ-5">
          <mxGeometry y="26" width="290" height="74" as="geometry" />
        </mxCell>
        <mxCell id="H6D08NlV-c1bFrTaUxoZ-7" value="" style="line;strokeWidth=1;fillColor=none;align=left;verticalAlign=middle;spacingTop=-1;spacingLeft=3;spacingRight=3;rotatable=0;labelPosition=right;points=[];portConstraint=eastwest;strokeColor=inherit;" vertex="1" parent="H6D08NlV-c1bFrTaUxoZ-5">
          <mxGeometry y="100" width="290" height="8" as="geometry" />
        </mxCell>
        <mxCell id="H6D08NlV-c1bFrTaUxoZ-8" value="&lt;div&gt;+ method(type): type&lt;/div&gt;&lt;div&gt;+ BankAccount(accountType: AccountType)&lt;/div&gt;&lt;div&gt;+ getAccountNumber(): Integer&lt;/div&gt;&lt;div&gt;+ depositCurrency(amount: Double): void&lt;br&gt;&lt;/div&gt;&lt;div&gt;+ withdrawCurrency(amount: Double): void&lt;/div&gt;&lt;div&gt;+ addTransaction(transaction: Transaction): void&lt;/div&gt;&lt;div&gt;+ getBalance(): Double&lt;br&gt;&lt;/div&gt;" style="text;strokeColor=none;fillColor=none;align=left;verticalAlign=top;spacingLeft=4;spacingRight=4;overflow=hidden;rotatable=0;points=[[0,0.5],[1,0.5]];portConstraint=eastwest;whiteSpace=wrap;html=1;" vertex="1" parent="H6D08NlV-c1bFrTaUxoZ-5">
          <mxGeometry y="108" width="290" height="122" as="geometry" />
        </mxCell>
        <mxCell id="H6D08NlV-c1bFrTaUxoZ-9" value="Transaction" style="swimlane;fontStyle=1;align=center;verticalAlign=top;childLayout=stackLayout;horizontal=1;startSize=26;horizontalStack=0;resizeParent=1;resizeParentMax=0;resizeLast=0;collapsible=1;marginBottom=0;whiteSpace=wrap;html=1;" vertex="1" parent="1">
          <mxGeometry x="-760" y="500" width="860" height="200" as="geometry" />
        </mxCell>
        <mxCell id="H6D08NlV-c1bFrTaUxoZ-10" value="&lt;div&gt;- id: Integer&lt;/div&gt;&lt;div&gt;- sourceAccount: BankAccount&lt;/div&gt;&lt;div&gt;- destinationAccount: BankAccount&lt;/div&gt;&lt;div&gt;- transactionType: TransactionType&lt;/div&gt;&lt;div&gt;- amount: Double&lt;/div&gt;&lt;div&gt;- representative: BankStaff&lt;br&gt;&lt;/div&gt;&lt;div&gt;&lt;br&gt;&lt;/div&gt;" style="text;strokeColor=none;fillColor=none;align=left;verticalAlign=top;spacingLeft=4;spacingRight=4;overflow=hidden;rotatable=0;points=[[0,0.5],[1,0.5]];portConstraint=eastwest;whiteSpace=wrap;html=1;" vertex="1" parent="H6D08NlV-c1bFrTaUxoZ-9">
          <mxGeometry y="26" width="860" height="124" as="geometry" />
        </mxCell>
        <mxCell id="H6D08NlV-c1bFrTaUxoZ-11" value="" style="line;strokeWidth=1;fillColor=none;align=left;verticalAlign=middle;spacingTop=-1;spacingLeft=3;spacingRight=3;rotatable=0;labelPosition=right;points=[];portConstraint=eastwest;strokeColor=inherit;" vertex="1" parent="H6D08NlV-c1bFrTaUxoZ-9">
          <mxGeometry y="150" width="860" height="8" as="geometry" />
        </mxCell>
        <mxCell id="H6D08NlV-c1bFrTaUxoZ-12" value="&lt;div&gt;+ Transaction(sourceAccount: BankAccount, destinationAccount: BankAccount, transactionType: TransactionType, amount: Double, representative: BankStaff)&lt;br&gt;&lt;/div&gt;" style="text;strokeColor=none;fillColor=none;align=left;verticalAlign=top;spacingLeft=4;spacingRight=4;overflow=hidden;rotatable=0;points=[[0,0.5],[1,0.5]];portConstraint=eastwest;whiteSpace=wrap;html=1;" vertex="1" parent="H6D08NlV-c1bFrTaUxoZ-9">
          <mxGeometry y="158" width="860" height="42" as="geometry" />
        </mxCell>
        <mxCell id="H6D08NlV-c1bFrTaUxoZ-13" value="BankStaff" style="swimlane;fontStyle=1;align=center;verticalAlign=top;childLayout=stackLayout;horizontal=1;startSize=26;horizontalStack=0;resizeParent=1;resizeParentMax=0;resizeLast=0;collapsible=1;marginBottom=0;whiteSpace=wrap;html=1;" vertex="1" parent="1">
          <mxGeometry x="-455" y="760" width="250" height="114" as="geometry" />
        </mxCell>
        <mxCell id="H6D08NlV-c1bFrTaUxoZ-14" value="&lt;div&gt;- id: Integer&lt;/div&gt;&lt;div&gt;- name: String&lt;/div&gt;&lt;div&gt;- position: String&lt;br&gt;&lt;/div&gt;" style="text;strokeColor=none;fillColor=none;align=left;verticalAlign=top;spacingLeft=4;spacingRight=4;overflow=hidden;rotatable=0;points=[[0,0.5],[1,0.5]];portConstraint=eastwest;whiteSpace=wrap;html=1;" vertex="1" parent="H6D08NlV-c1bFrTaUxoZ-13">
          <mxGeometry y="26" width="250" height="54" as="geometry" />
        </mxCell>
        <mxCell id="H6D08NlV-c1bFrTaUxoZ-15" value="" style="line;strokeWidth=1;fillColor=none;align=left;verticalAlign=middle;spacingTop=-1;spacingLeft=3;spacingRight=3;rotatable=0;labelPosition=right;points=[];portConstraint=eastwest;strokeColor=inherit;" vertex="1" parent="H6D08NlV-c1bFrTaUxoZ-13">
          <mxGeometry y="80" width="250" height="8" as="geometry" />
        </mxCell>
        <mxCell id="H6D08NlV-c1bFrTaUxoZ-16" value="+ BankStaff(name: String, position: String)" style="text;strokeColor=none;fillColor=none;align=left;verticalAlign=top;spacingLeft=4;spacingRight=4;overflow=hidden;rotatable=0;points=[[0,0.5],[1,0.5]];portConstraint=eastwest;whiteSpace=wrap;html=1;" vertex="1" parent="H6D08NlV-c1bFrTaUxoZ-13">
          <mxGeometry y="88" width="250" height="26" as="geometry" />
        </mxCell>
        <mxCell id="H6D08NlV-c1bFrTaUxoZ-17" style="edgeStyle=orthogonalEdgeStyle;rounded=0;orthogonalLoop=1;jettySize=auto;html=1;exitX=0.506;exitY=1;exitDx=0;exitDy=0;entryX=0.5;entryY=0;entryDx=0;entryDy=0;endArrow=diamondThin;endFill=1;strokeWidth=2;endSize=20;startSize=13;exitPerimeter=0;" edge="1" parent="1" source="H6D08NlV-c1bFrTaUxoZ-4" target="H6D08NlV-c1bFrTaUxoZ-5">
          <mxGeometry relative="1" as="geometry" />
        </mxCell>
        <mxCell id="H6D08NlV-c1bFrTaUxoZ-18" style="edgeStyle=orthogonalEdgeStyle;rounded=0;orthogonalLoop=1;jettySize=auto;html=1;exitX=0.517;exitY=1;exitDx=0;exitDy=0;entryX=0.5;entryY=0;entryDx=0;entryDy=0;endArrow=diamondThin;endFill=1;strokeWidth=2;endSize=20;startSize=13;exitPerimeter=0;" edge="1" parent="1" source="H6D08NlV-c1bFrTaUxoZ-8" target="H6D08NlV-c1bFrTaUxoZ-9">
          <mxGeometry relative="1" as="geometry">
            <mxPoint x="-370" y="370" as="sourcePoint" />
            <mxPoint x="-535" y="470" as="targetPoint" />
          </mxGeometry>
        </mxCell>
        <mxCell id="H6D08NlV-c1bFrTaUxoZ-19" style="edgeStyle=orthogonalEdgeStyle;rounded=0;orthogonalLoop=1;jettySize=auto;html=1;exitX=1;exitY=0.5;exitDx=0;exitDy=0;entryX=1;entryY=0.5;entryDx=0;entryDy=0;" edge="1" parent="1" source="H6D08NlV-c1bFrTaUxoZ-4" target="H6D08NlV-c1bFrTaUxoZ-10">
          <mxGeometry relative="1" as="geometry" />
        </mxCell>
        <mxCell id="H6D08NlV-c1bFrTaUxoZ-20" style="edgeStyle=orthogonalEdgeStyle;rounded=0;orthogonalLoop=1;jettySize=auto;html=1;exitX=0.501;exitY=1.002;exitDx=0;exitDy=0;entryX=0.5;entryY=0;entryDx=0;entryDy=0;exitPerimeter=0;" edge="1" parent="1" source="H6D08NlV-c1bFrTaUxoZ-12" target="H6D08NlV-c1bFrTaUxoZ-13">
          <mxGeometry relative="1" as="geometry" />
        </mxCell>
      </root>
    </mxGraphModel>
  </diagram>
</mxfile>
